<svg width="58" height="58" viewBox="0 0 58 58" fill="none" xmlns="http://www.w3.org/2000/svg">
<g filter="url(#filter0_f_215_134)">
<rect x="6" y="6" width="46" height="46" rx="23" fill="black"/>
</g>
<rect x="6" y="6" width="46" height="46" rx="23" fill="black"/>
<path d="M34 27C35.6569 27 37 25.6569 37 24C37 22.3431 35.6569 21 34 21C32.3431 21 31 22.3431 31 24C31 25.6569 32.3431 27 34 27Z" stroke="white" stroke-width="1.5" stroke-linecap="round" stroke-linejoin="round"/>
<path d="M24 37C25.6569 37 27 35.6569 27 34C27 32.3431 25.6569 31 24 31C22.3431 31 21 32.3431 21 34C21 35.6569 22.3431 37 24 37Z" stroke="white" stroke-width="1.5" stroke-linecap="round" stroke-linejoin="round"/>
<path d="M31 31H37V36C37 36.2652 36.8946 36.5196 36.7071 36.7071C36.5196 36.8946 36.2652 37 36 37H32C31.7348 37 31.4804 36.8946 31.2929 36.7071C31.1054 36.5196 31 36.2652 31 36V31ZM21 21H27V26C27 26.2652 26.8946 26.5196 26.7071 26.7071C26.5196 26.8946 26.2652 27 26 27H22C21.7348 27 21.4804 26.8946 21.2929 26.7071C21.1054 26.5196 21 26.2652 21 26V21Z" stroke="white" stroke-width="1.5" stroke-linecap="round" stroke-linejoin="round"/>
<defs>
<filter id="filter0_f_215_134" x="0" y="0" width="58" height="58" filterUnits="userSpaceOnUse" color-interpolation-filters="sRGB">
<feFlood flood-opacity="0" result="BackgroundImageFix"/>
<feBlend mode="normal" in="SourceGraphic" in2="BackgroundImageFix" result="shape"/>
<feGaussianBlur stdDeviation="3" result="effect1_foregroundBlur_215_134"/>
</filter>
</defs>
</svg>
