<svg width="30" height="30" viewBox="0 0 30 30" fill="none" xmlns="http://www.w3.org/2000/svg">
<path fill-rule="evenodd" clip-rule="evenodd" d="M15 3.75C15.1872 3.75012 15.3721 3.7923 15.5408 3.87343C15.7096 3.95457 15.858 4.07258 15.975 4.21875L20.975 10.4688C21.0837 10.5961 21.1658 10.744 21.2162 10.9036C21.2667 11.0633 21.2846 11.2314 21.2689 11.3981C21.2531 11.5648 21.204 11.7266 21.1245 11.874C21.045 12.0214 20.9367 12.1512 20.806 12.2559C20.6754 12.3606 20.525 12.438 20.3639 12.4835C20.2027 12.529 20.0341 12.5416 19.868 12.5206C19.7018 12.4997 19.5416 12.4456 19.3968 12.3615C19.252 12.2774 19.1256 12.1651 19.025 12.0312L16.25 8.5625V17.5C16.25 17.8315 16.1183 18.1495 15.8839 18.3839C15.6495 18.6183 15.3315 18.75 15 18.75C14.6685 18.75 14.3505 18.6183 14.1161 18.3839C13.8817 18.1495 13.75 17.8315 13.75 17.5V8.5625L10.975 12.0325C10.8744 12.1664 10.748 12.2787 10.6032 12.3627C10.4584 12.4468 10.2982 12.5009 10.132 12.5219C9.96592 12.5428 9.79729 12.5302 9.63614 12.4847C9.475 12.4393 9.32463 12.3619 9.19396 12.2572C9.0633 12.1525 8.955 12.0226 8.87549 11.8752C8.79599 11.7279 8.7469 11.5661 8.73114 11.3994C8.71538 11.2327 8.73327 11.0645 8.78375 10.9049C8.83423 10.7452 8.91627 10.5973 9.025 10.47L14.025 4.22C14.1419 4.0736 14.2902 3.95535 14.459 3.874C14.6278 3.79264 14.8126 3.75027 15 3.75ZM11.25 17.5V16.25H6.25C5.58696 16.25 4.95107 16.5134 4.48223 16.9822C4.01339 17.4511 3.75 18.087 3.75 18.75V23.75C3.75 24.413 4.01339 25.0489 4.48223 25.5178C4.95107 25.9866 5.58696 26.25 6.25 26.25H23.75C24.413 26.25 25.0489 25.9866 25.5178 25.5178C25.9866 25.0489 26.25 24.413 26.25 23.75V18.75C26.25 18.087 25.9866 17.4511 25.5178 16.9822C25.0489 16.5134 24.413 16.25 23.75 16.25H18.75V17.5C18.75 18.4946 18.3549 19.4484 17.6517 20.1517C16.9484 20.8549 15.9946 21.25 15 21.25C14.0054 21.25 13.0516 20.8549 12.3483 20.1517C11.6451 19.4484 11.25 18.4946 11.25 17.5ZM21.25 20C20.9185 20 20.6005 20.1317 20.3661 20.3661C20.1317 20.6005 20 20.9185 20 21.25C20 21.5815 20.1317 21.8995 20.3661 22.1339C20.6005 22.3683 20.9185 22.5 21.25 22.5H21.2625C21.594 22.5 21.912 22.3683 22.1464 22.1339C22.3808 21.8995 22.5125 21.5815 22.5125 21.25C22.5125 20.9185 22.3808 20.6005 22.1464 20.3661C21.912 20.1317 21.594 20 21.2625 20H21.25Z" fill="black"/>
</svg>
