<svg width="64" height="64" viewBox="0 0 64 64" fill="none" xmlns="http://www.w3.org/2000/svg">
<g filter="url(#filter0_d_31_362)">
<circle cx="32" cy="32" r="25" fill="#636363"/>
</g>
<path d="M31.899 27.1675C29.2849 27.1675 27.1516 29.3009 27.1516 31.915C27.1516 34.5291 29.2849 36.6624 31.899 36.6624C34.513 36.6624 36.6463 34.5291 36.6463 31.915C36.6463 29.3009 34.513 27.1675 31.899 27.1675ZM46.1375 31.915C46.1375 29.9491 46.1553 28.0009 46.0449 26.0386C45.9345 23.7592 45.4145 21.7363 43.7478 20.0695C42.0775 18.3992 40.0581 17.8828 37.7788 17.7724C35.8129 17.662 33.8649 17.6798 31.9025 17.6798C29.9366 17.6798 27.9885 17.662 26.0262 17.7724C23.7469 17.8828 21.724 18.4027 20.0573 20.0695C18.387 21.7399 17.8706 23.7592 17.7602 26.0386C17.6498 28.0045 17.6676 29.9526 17.6676 31.915C17.6676 33.8774 17.6498 35.8291 17.7602 37.7914C17.8706 40.0708 18.3905 42.0937 20.0573 43.7605C21.7276 45.4308 23.7469 45.9472 26.0262 46.0576C27.9921 46.168 29.9402 46.1502 31.9025 46.1502C33.8684 46.1502 35.8165 46.168 37.7788 46.0576C40.0581 45.9472 42.081 45.4272 43.7478 43.7605C45.4181 42.0901 45.9345 40.0708 46.0449 37.7914C46.1588 35.8291 46.1375 33.8809 46.1375 31.915ZM31.899 39.2196C27.8568 39.2196 24.5945 35.9573 24.5945 31.915C24.5945 27.8727 27.8568 24.6104 31.899 24.6104C35.9412 24.6104 39.2034 27.8727 39.2034 31.915C39.2034 35.9573 35.9412 39.2196 31.899 39.2196ZM39.5026 26.0172C38.5588 26.0172 37.7966 25.255 37.7966 24.3112C37.7966 23.3674 38.5588 22.6053 39.5026 22.6053C40.4463 22.6053 41.2085 23.3674 41.2085 24.3112C41.2088 24.5353 41.1648 24.7573 41.0792 24.9644C40.9936 25.1715 40.8679 25.3597 40.7095 25.5182C40.551 25.6766 40.3628 25.8023 40.1557 25.8879C39.9486 25.9735 39.7267 26.0175 39.5026 26.0172Z" fill="white"/>
<defs>
<filter id="filter0_d_31_362" x="0" y="0" width="64" height="64" filterUnits="userSpaceOnUse" color-interpolation-filters="sRGB">
<feFlood flood-opacity="0" result="BackgroundImageFix"/>
<feColorMatrix in="SourceAlpha" type="matrix" values="0 0 0 0 0 0 0 0 0 0 0 0 0 0 0 0 0 0 127 0" result="hardAlpha"/>
<feMorphology radius="1" operator="dilate" in="SourceAlpha" result="effect1_dropShadow_31_362"/>
<feOffset/>
<feGaussianBlur stdDeviation="3"/>
<feComposite in2="hardAlpha" operator="out"/>
<feColorMatrix type="matrix" values="0 0 0 0 0 0 0 0 0 0 0 0 0 0 0 0 0 0 0.15 0"/>
<feBlend mode="normal" in2="BackgroundImageFix" result="effect1_dropShadow_31_362"/>
<feBlend mode="normal" in="SourceGraphic" in2="effect1_dropShadow_31_362" result="shape"/>
</filter>
</defs>
</svg>
