<svg width="89" height="60" viewBox="0 0 89 60" fill="none" xmlns="http://www.w3.org/2000/svg">
<path d="M52.5 29.9997C52.5071 34.4665 51.1786 38.8335 48.685 42.5397C46.6286 45.6072 43.8479 48.1207 40.5889 49.8579C37.3299 51.5951 33.6931 52.5024 30 52.4997C26.3069 52.5024 22.6701 51.5951 19.4111 49.8579C16.1521 48.1207 13.3715 45.6072 11.315 42.5397C9.35683 39.6207 8.10976 36.2836 7.67376 32.7958C7.23777 29.308 7.62499 25.7665 8.80437 22.4554C9.98375 19.1442 11.9225 16.1554 14.4652 13.7286C17.0078 11.3017 20.0837 9.50433 23.4463 8.48051C26.8088 7.45669 30.3644 7.2349 33.8281 7.83293C37.2918 8.43095 40.5672 9.83216 43.3918 11.9242C46.2163 14.0163 48.5115 16.741 50.0932 19.8799C51.6749 23.0189 52.4992 26.4847 52.5 29.9997Z" stroke="#111111"/>
<path d="M33.75 22.5C33.75 23.4946 33.3549 24.4484 32.6516 25.1517C31.9483 25.8549 30.9945 26.25 30 26.25V28.75C30.8207 28.75 31.6334 28.5883 32.3917 28.2742C33.15 27.9602 33.839 27.4998 34.4194 26.9194C34.9997 26.3391 35.4601 25.6501 35.7742 24.8918C36.0883 24.1335 36.25 23.3208 36.25 22.5H33.75ZM30 26.25C29.0054 26.25 28.0516 25.8549 27.3483 25.1517C26.645 24.4484 26.25 23.4946 26.25 22.5H23.75C23.75 23.3208 23.9116 24.1335 24.2257 24.8918C24.5398 25.6501 25.0002 26.3391 25.5805 26.9194C26.7526 28.0915 28.3424 28.75 30 28.75V26.25ZM26.25 22.5C26.25 21.5054 26.645 20.5516 27.3483 19.8483C28.0516 19.1451 29.0054 18.75 30 18.75V16.25C28.3424 16.25 26.7526 16.9085 25.5805 18.0806C24.4084 19.2527 23.75 20.8424 23.75 22.5H26.25ZM30 18.75C30.9945 18.75 31.9483 19.1451 32.6516 19.8483C33.3549 20.5516 33.75 21.5054 33.75 22.5H36.25C36.25 20.8424 35.5915 19.2527 34.4194 18.0806C33.2473 16.9085 31.6576 16.25 30 16.25V18.75ZM12.915 44.64L11.715 44.285L11.5225 44.9375L11.965 45.455L12.915 44.64ZM47.085 44.64L48.035 45.455L48.4775 44.9375L48.2825 44.285L47.085 44.64ZM22.5 38.75H37.5V36.25H22.5V38.75ZM22.5 36.25C20.0771 36.2496 17.7189 37.0315 15.7761 38.4792C13.8333 39.9269 12.4074 41.9632 11.715 44.285L14.1125 44.9975C14.6514 43.1918 15.7589 41.6084 17.2701 40.4827C18.7813 39.3571 20.6156 38.7494 22.5 38.75V36.25ZM30 51.25C26.9331 51.2533 23.9021 50.5911 21.116 49.3092C18.33 48.0273 15.8552 46.1562 13.8625 43.825L11.965 45.455C14.1926 48.0594 16.9586 50.1497 20.0721 51.5817C23.1857 53.0138 26.5728 53.7536 30 53.75V51.25ZM37.5 38.75C39.3847 38.7495 41.2192 39.3576 42.7304 40.4837C44.2417 41.6099 45.349 43.1939 45.8875 45L48.2825 44.285C47.5901 41.9632 46.1666 39.9269 44.2238 38.4792C42.2811 37.0315 39.9228 36.2496 37.5 36.25V38.75ZM46.1375 43.825C44.1447 46.1562 41.67 48.0273 38.8839 49.3092C36.0978 50.5911 33.0668 51.2533 30 51.25V53.75C33.4271 53.7536 36.8142 53.0138 39.9278 51.5817C43.0414 50.1497 45.8073 48.0594 48.035 45.455L46.1375 43.825Z" fill="#111111"/>
<path d="M76.1778 23.5082C76.2696 23.4027 76.3923 23.3165 76.5355 23.2569C76.6787 23.1973 76.838 23.1662 76.9998 23.1662C77.1616 23.1662 77.3209 23.1973 77.4641 23.2569C77.6073 23.3165 77.7301 23.4027 77.8218 23.5082L86.8218 33.7999C86.926 33.9186 86.9871 34.0576 86.9984 34.2019C87.0098 34.3461 86.971 34.4901 86.8863 34.6181C86.8016 34.7462 86.6741 34.8534 86.5178 34.9281C86.3616 35.0028 86.1824 35.0422 85.9998 35.042H67.9998C67.8177 35.0414 67.6392 35.0015 67.4835 34.9266C67.3278 34.8517 67.2009 34.7446 67.1164 34.6169C67.0318 34.4891 66.9929 34.3456 67.0037 34.2016C67.0145 34.0577 67.0747 33.9188 67.1778 33.7999L76.1778 23.5082Z" fill="#111111"/>
</svg>
