<svg width="30" height="30" viewBox="0 0 30 30" fill="none" xmlns="http://www.w3.org/2000/svg">
<path d="M25 2.5C25.3315 2.5 25.6495 2.6317 25.8839 2.86612C26.1183 3.10054 26.25 3.41848 26.25 3.75V8.44625L23.75 10.9462V5H6.25V25H23.75V21.5525L26.25 19.0525V26.25C26.25 26.5815 26.1183 26.8995 25.8839 27.1339C25.6495 27.3683 25.3315 27.5 25 27.5H5C4.66848 27.5 4.35054 27.3683 4.11612 27.1339C3.8817 26.8995 3.75 26.5815 3.75 26.25V3.75C3.75 3.41848 3.8817 3.10054 4.11612 2.86612C4.35054 2.6317 4.66848 2.5 5 2.5H25ZM27.2225 11.01L28.99 12.7775L19.2675 22.5L17.4975 22.4975L17.5 20.7325L27.2225 11.01ZM16.25 15V17.5H10V15H16.25ZM20 10V12.5H10V10H20Z" fill="black"/>
</svg>
