<svg width="64" height="64" viewBox="0 0 64 64" fill="none" xmlns="http://www.w3.org/2000/svg">
<g filter="url(#filter0_d_31_365)">
<circle cx="32" cy="32" r="25" fill="#636363"/>
</g>
<path d="M48.3437 22.625C47.1406 23.1719 45.8437 23.5312 44.5 23.7031C45.875 22.875 46.9375 21.5625 47.4375 19.9844C46.1406 20.7656 44.7031 21.3125 43.1875 21.625C41.9531 20.2813 40.2188 19.5 38.25 19.5C34.5781 19.5 31.5781 22.5 31.5781 26.2031C31.5781 26.7344 31.6406 27.25 31.75 27.7344C26.1875 27.4531 21.2344 24.7812 17.9375 20.7344C17.3594 21.7188 17.0313 22.875 17.0313 24.0938C17.0313 26.4219 18.2031 28.4844 20.0156 29.6562C18.9062 29.6562 17.875 29.3438 16.9688 28.875V28.9219C16.9688 32.1719 19.2813 34.8906 22.3438 35.5C21.3607 35.7702 20.3282 35.8077 19.3281 35.6094C19.7525 36.9414 20.5837 38.1069 21.7047 38.9421C22.8258 39.7773 24.1804 40.2401 25.5781 40.2656C23.2089 42.1414 20.2719 43.1553 17.25 43.1406C16.7188 43.1406 16.1875 43.1094 15.6562 43.0469C18.625 44.9531 22.1562 46.0625 25.9375 46.0625C38.25 46.0625 45.0156 35.8438 45.0156 26.9844C45.0156 26.6875 45.0156 26.4062 45 26.1094C46.3125 25.1719 47.4375 23.9844 48.3437 22.625Z" fill="white"/>
<defs>
<filter id="filter0_d_31_365" x="0" y="0" width="64" height="64" filterUnits="userSpaceOnUse" color-interpolation-filters="sRGB">
<feFlood flood-opacity="0" result="BackgroundImageFix"/>
<feColorMatrix in="SourceAlpha" type="matrix" values="0 0 0 0 0 0 0 0 0 0 0 0 0 0 0 0 0 0 127 0" result="hardAlpha"/>
<feMorphology radius="1" operator="dilate" in="SourceAlpha" result="effect1_dropShadow_31_365"/>
<feOffset/>
<feGaussianBlur stdDeviation="3"/>
<feComposite in2="hardAlpha" operator="out"/>
<feColorMatrix type="matrix" values="0 0 0 0 0 0 0 0 0 0 0 0 0 0 0 0 0 0 0.15 0"/>
<feBlend mode="normal" in2="BackgroundImageFix" result="effect1_dropShadow_31_365"/>
<feBlend mode="normal" in="SourceGraphic" in2="effect1_dropShadow_31_365" result="shape"/>
</filter>
</defs>
</svg>
